<svg xmlns="http://www.w3.org/2000/svg" width="1600" height="960" viewBox="0 0 1600 960" role="img" aria-labelledby="title desc">
  <title id="title">How the Kopiur Kustomize component becomes backup and restore resources</title>
  <desc id="desc">Two-panel diagram. The first panel shows a per-PVC stub and shared Kustomize component combining into rendered Kopiur resources. The second panel shows scheduled backup through Longhorn and Kopia to RustFS, and restore-before-bind back into an application PVC.</desc>

  <defs>
    <filter id="shadow" x="-20%" y="-20%" width="140%" height="140%">
      <feDropShadow dx="0" dy="5" stdDeviation="7" flood-color="#17212b" flood-opacity="0.13"/>
    </filter>
    <marker id="arrow-dark" markerWidth="12" markerHeight="12" refX="10" refY="6" orient="auto">
      <path d="M1,1 L11,6 L1,11 Z" fill="#344250"/>
    </marker>
    <marker id="arrow-blue" markerWidth="12" markerHeight="12" refX="10" refY="6" orient="auto">
      <path d="M1,1 L11,6 L1,11 Z" fill="#087e8b"/>
    </marker>
    <style>
      .title { font: 700 38px Inter, ui-sans-serif, system-ui, sans-serif; fill: #17212b; }
      .subtitle { font: 400 19px Inter, ui-sans-serif, system-ui, sans-serif; fill: #586775; }
      .section-number { font: 700 18px Inter, ui-sans-serif, system-ui, sans-serif; fill: #ffffff; }
      .section-title { font: 700 25px Inter, ui-sans-serif, system-ui, sans-serif; fill: #17212b; }
      .card-title { font: 700 21px Inter, ui-sans-serif, system-ui, sans-serif; fill: #17212b; }
      .card-label { font: 700 14px Inter, ui-sans-serif, system-ui, sans-serif; letter-spacing: 0; text-transform: uppercase; }
      .body { font: 500 17px Inter, ui-sans-serif, system-ui, sans-serif; fill: #344250; }
      .small { font: 500 15px Inter, ui-sans-serif, system-ui, sans-serif; fill: #586775; }
      .mono { font: 600 15px "SFMono-Regular", Consolas, "Liberation Mono", monospace; fill: #293744; }
      .pill { font: 650 15px Inter, ui-sans-serif, system-ui, sans-serif; fill: #293744; }
      .flow-title { font: 700 18px Inter, ui-sans-serif, system-ui, sans-serif; fill: #17212b; }
      .flow-body { font: 500 15px Inter, ui-sans-serif, system-ui, sans-serif; fill: #455563; }
      .motion { stroke-dasharray: 14 10; animation: reveal .45s ease-out both var(--delay, 0s), flow 1.1s linear infinite; }
      @keyframes reveal { from { opacity: 0; } to { opacity: 1; } }
      @keyframes flow { to { stroke-dashoffset: -48; } }
      @media (prefers-reduced-motion: reduce) { .motion { animation: none; stroke-dasharray: none; } }
    </style>
  </defs>

  <rect width="1600" height="960" fill="#ffffff"/>

  <text x="70" y="62" class="title">Kustomize Component: from shared defaults to automatic recovery</text>
  <text x="70" y="96" class="subtitle">A visual map of what Git declares, what Kustomize builds, and what the cluster runs.</text>

  <!-- Panel 1 -->
  <rect x="50" y="126" width="1500" height="328" rx="8" fill="#f3f6f8" stroke="#dce3e8"/>
  <circle cx="82" cy="165" r="20" fill="#2f6f4e"/>
  <text x="82" y="171" text-anchor="middle" class="section-number">1</text>
  <text x="116" y="173" class="section-title">Assemble the desired state</text>

  <rect x="80" y="202" width="365" height="214" rx="7" fill="#ffffff" stroke="#d4dce2" filter="url(#shadow)"/>
  <rect x="80" y="202" width="365" height="9" rx="4" fill="#dc5f5f"/>
  <circle cx="411" cy="239" r="17" fill="#dc5f5f"/>
  <text x="411" y="245" text-anchor="middle" class="section-number">1</text>
  <text x="106" y="244" class="card-label" fill="#a33737">PER-PVC INPUT</text>
  <text x="106" y="277" class="card-title">Small app stub</text>
  <text x="106" y="307" class="mono">kopiur/data-pvc.yaml</text>
  <rect x="106" y="328" width="93" height="34" rx="5" fill="#fde8e8"/>
  <text x="152" y="350" text-anchor="middle" class="pill">identity</text>
  <rect x="208" y="328" width="89" height="34" rx="5" fill="#fde8e8"/>
  <text x="252" y="350" text-anchor="middle" class="pill">schedule</text>
  <rect x="306" y="328" width="112" height="34" rx="5" fill="#fde8e8"/>
  <text x="362" y="350" text-anchor="middle" class="pill">retention</text>
  <rect x="106" y="371" width="140" height="30" rx="5" fill="#fde8e8"/>
  <text x="176" y="391" text-anchor="middle" class="pill">mover UID:GID</text>

  <text x="475" y="318" text-anchor="middle" style="font: 700 36px Inter, sans-serif; fill:#7a8792;">+</text>

  <rect x="505" y="202" width="395" height="214" rx="7" fill="#ffffff" stroke="#d4dce2" filter="url(#shadow)"/>
  <rect x="505" y="202" width="395" height="9" rx="4" fill="#3fa36c"/>
  <circle cx="866" cy="239" r="17" fill="#3fa36c"/>
  <text x="866" y="245" text-anchor="middle" class="section-number">2</text>
  <text x="531" y="244" class="card-label" fill="#276d49">SHARED INPUT</text>
  <text x="531" y="277" class="card-title">Kustomize Component</text>
  <text x="531" y="307" class="mono">common/kopiur-backup</text>
  <rect x="531" y="328" width="151" height="34" rx="5" fill="#e1f3e8"/>
  <text x="607" y="350" text-anchor="middle" class="pill">repository</text>
  <rect x="691" y="328" width="180" height="34" rx="5" fill="#e1f3e8"/>
  <text x="781" y="350" text-anchor="middle" class="pill">snapshot class</text>
  <rect x="531" y="371" width="161" height="30" rx="5" fill="#e1f3e8"/>
  <text x="612" y="391" text-anchor="middle" class="pill">restore defaults</text>
  <rect x="701" y="371" width="170" height="30" rx="5" fill="#e1f3e8"/>
  <text x="786" y="391" text-anchor="middle" class="pill">copy method</text>

  <path class="motion" style="--delay:.25s" d="M920 309 H1002" fill="none" stroke="#344250" stroke-width="4" marker-end="url(#arrow-dark)"/>
  <rect x="914" y="268" width="94" height="30" rx="5" fill="#344250"/>
  <text x="961" y="288" text-anchor="middle" style="font:700 14px Inter, sans-serif; fill:#ffffff;">BUILD</text>

  <rect x="1025" y="202" width="485" height="214" rx="7" fill="#ffffff" stroke="#9fd3da" filter="url(#shadow)"/>
  <rect x="1025" y="202" width="485" height="9" rx="4" fill="#1594a3"/>
  <circle cx="1476" cy="239" r="17" fill="#1594a3"/>
  <text x="1476" y="245" text-anchor="middle" class="section-number">3</text>
  <text x="1051" y="244" class="card-label" fill="#087e8b">RENDERED OUTPUT</text>
  <text x="1051" y="277" class="card-title">Complete Kubernetes resources</text>
  <rect x="1051" y="302" width="137" height="44" rx="6" fill="#dff4f6" stroke="#9fd3da"/>
  <text x="1120" y="329" text-anchor="middle" class="pill">SnapshotPolicy</text>
  <rect x="1198" y="302" width="158" height="44" rx="6" fill="#dff4f6" stroke="#9fd3da"/>
  <text x="1277" y="329" text-anchor="middle" class="pill">SnapshotSchedule</text>
  <rect x="1366" y="302" width="118" height="44" rx="6" fill="#dff4f6" stroke="#9fd3da"/>
  <text x="1425" y="329" text-anchor="middle" class="pill">Restore</text>
  <text x="1051" y="381" class="body">Argo CD applies these, not the partial inputs.</text>

  <!-- Panel 2 -->
  <rect x="50" y="478" width="1500" height="418" rx="8" fill="#f3f6f8" stroke="#dce3e8"/>
  <circle cx="82" cy="517" r="20" fill="#087e8b"/>
  <text x="82" y="523" text-anchor="middle" class="section-number">2</text>
  <text x="116" y="525" class="section-title">Run backup and restore</text>

  <rect x="84" y="557" width="196" height="38" rx="6" fill="#dff4f6" stroke="#9fd3da"/>
  <text x="182" y="581" text-anchor="middle" style="font:700 15px Inter, sans-serif; fill:#087e8b;">SCHEDULED BACKUP</text>
  <rect x="300" y="548" width="225" height="72" rx="7" fill="#ffffff" stroke="#9fd3da"/>
  <text x="413" y="578" text-anchor="middle" class="flow-title">SnapshotSchedule</text>
  <text x="413" y="601" text-anchor="middle" class="flow-body">starts the policy</text>
  <path class="motion" style="--delay:.6s" d="M527 584 H575" fill="none" stroke="#087e8b" stroke-width="4" marker-end="url(#arrow-blue)"/>
  <rect x="595" y="548" width="225" height="72" rx="7" fill="#ffffff" stroke="#9fd3da"/>
  <text x="708" y="578" text-anchor="middle" class="flow-title">Longhorn snapshot</text>
  <text x="708" y="601" text-anchor="middle" class="flow-body">point-in-time volume</text>
  <path class="motion" style="--delay:.85s" d="M822 584 H855" fill="none" stroke="#087e8b" stroke-width="4" marker-end="url(#arrow-blue)"/>
  <rect x="875" y="548" width="225" height="72" rx="7" fill="#ffffff" stroke="#9fd3da"/>
  <text x="988" y="578" text-anchor="middle" class="flow-title">Kopia mover</text>
  <text x="988" y="601" text-anchor="middle" class="flow-body">runs as data owner</text>
  <path class="motion" style="--delay:1.1s" d="M1102 584 H1155" fill="none" stroke="#087e8b" stroke-width="4" marker-end="url(#arrow-blue)"/>
  <rect x="1175" y="538" width="291" height="92" rx="7" fill="#fff3df" stroke="#e7b95e" filter="url(#shadow)"/>
  <text x="1321" y="574" text-anchor="middle" class="flow-title">RustFS on TrueNAS</text>
  <text x="1321" y="599" text-anchor="middle" class="flow-body">encrypted Kopia repository</text>

  <line x1="84" y1="658" x2="1466" y2="658" stroke="#d4dce2" stroke-width="2"/>

  <rect x="84" y="707" width="196" height="38" rx="6" fill="#e1f3e8" stroke="#87c7a3"/>
  <text x="182" y="731" text-anchor="middle" style="font:700 15px Inter, sans-serif; fill:#276d49;">RESTORE BEFORE BIND</text>
  <rect x="300" y="688" width="225" height="78" rx="7" fill="#ffffff" stroke="#9fd3da"/>
  <text x="413" y="718" text-anchor="middle" class="flow-title">PVC from Git</text>
  <text x="413" y="742" text-anchor="middle" class="flow-body">dataSourceRef: Restore</text>
  <path class="motion" style="--delay:1.35s" d="M527 727 H575" fill="none" stroke="#087e8b" stroke-width="4" marker-end="url(#arrow-blue)"/>
  <rect x="595" y="688" width="225" height="78" rx="7" fill="#e9edf0" stroke="#9aa7b2"/>
  <text x="708" y="718" text-anchor="middle" class="flow-title">PVC Pending</text>
  <text x="708" y="742" text-anchor="middle" class="flow-body">application cannot start</text>
  <path class="motion" style="--delay:1.6s" d="M822 727 H855" fill="none" stroke="#087e8b" stroke-width="4" marker-end="url(#arrow-blue)"/>
  <rect x="875" y="688" width="225" height="78" rx="7" fill="#ffffff" stroke="#9fd3da"/>
  <text x="988" y="718" text-anchor="middle" class="flow-title">Restore mover</text>
  <text x="988" y="742" text-anchor="middle" class="flow-body">reads from RustFS</text>
  <path class="motion" style="--delay:1.85s" d="M1102 727 H1155" fill="none" stroke="#087e8b" stroke-width="4" marker-end="url(#arrow-blue)"/>
  <rect x="1175" y="688" width="291" height="78" rx="7" fill="#e1f3e8" stroke="#87c7a3" filter="url(#shadow)"/>
  <text x="1321" y="718" text-anchor="middle" class="flow-title">PVC Bound with data</text>
  <text x="1321" y="742" text-anchor="middle" class="flow-body">application starts</text>

  <path class="motion" style="--delay:2.1s" d="M1321 638 V666 H988 V680" fill="none" stroke="#c58a25" stroke-width="3" marker-end="url(#arrow-dark)"/>
  <text x="1155" y="649" text-anchor="middle" class="small">restore reads the latest snapshot</text>

  <rect x="84" y="813" width="1382" height="52" rx="6" fill="#17212b"/>
  <text x="775" y="846" text-anchor="middle" style="font: 600 17px Inter, ui-sans-serif, system-ui, sans-serif; fill:#ffffff;">Git declares recovery before the failure happens. A replacement PVC either binds with restored data or remains Pending.</text>
</svg>
