<svg xmlns="http://www.w3.org/2000/svg" width="1600" height="980" viewBox="0 0 1600 980" role="img" aria-labelledby="title desc">
  <title id="title">What a Kustomize Component does</title>
  <desc id="desc">A before, transform, and after diagram. An application-owned SnapshotPolicy stub and a shared Component patch are loaded by Kustomize. The patch matches the resource group and kind, adds shared fields in memory, and emits a complete manifest for Argo CD without changing the source files.</desc>

  <defs>
    <filter id="shadow" x="-20%" y="-20%" width="140%" height="140%">
      <feDropShadow dx="0" dy="5" stdDeviation="7" flood-color="#17212b" flood-opacity="0.13"/>
    </filter>
    <marker id="arrow" markerWidth="12" markerHeight="12" refX="10" refY="6" orient="auto">
      <path d="M1,1 L11,6 L1,11 Z" fill="#344250"/>
    </marker>
    <style>
      .title { font: 700 39px Inter, ui-sans-serif, system-ui, sans-serif; fill: #17212b; }
      .subtitle { font: 400 19px Inter, ui-sans-serif, system-ui, sans-serif; fill: #586775; }
      .card-title { font: 700 22px Inter, ui-sans-serif, system-ui, sans-serif; fill: #17212b; }
      .label { font: 700 14px Inter, ui-sans-serif, system-ui, sans-serif; }
      .body { font: 500 17px Inter, ui-sans-serif, system-ui, sans-serif; fill: #455563; }
      .small { font: 500 15px Inter, ui-sans-serif, system-ui, sans-serif; fill: #586775; }
      .mono { font: 600 15px "SFMono-Regular", Consolas, "Liberation Mono", monospace; fill: #293744; }
      .yaml { font: 500 14px "SFMono-Regular", Consolas, "Liberation Mono", monospace; fill: #344250; }
      .yaml-strong { font: 700 14px "SFMono-Regular", Consolas, "Liberation Mono", monospace; fill: #276d49; }
      .badge { font: 700 15px Inter, ui-sans-serif, system-ui, sans-serif; fill: #ffffff; }
    </style>
  </defs>

  <rect width="1600" height="980" fill="#ffffff"/>
  <text x="70" y="62" class="title">What does a Kustomize Component actually do?</text>
  <text x="70" y="96" class="subtitle">Explicitly opt in, match Kubernetes objects, patch structured fields, then emit YAML before apply.</text>

  <!-- Mental model -->
  <rect x="70" y="126" width="1460" height="94" rx="8" fill="#f3f6f8" stroke="#d4dce2"/>
  <text x="100" y="161" class="label" fill="#586775">MENTAL MODEL</text>
  <rect x="100" y="174" width="168" height="30" rx="5" fill="#fde8e8"/>
  <text x="184" y="194" text-anchor="middle" class="small">not Kyverno</text>
  <rect x="278" y="174" width="173" height="30" rx="5" fill="#fde8e8"/>
  <text x="365" y="194" text-anchor="middle" class="small">not file discovery</text>
  <rect x="461" y="174" width="192" height="30" rx="5" fill="#fde8e8"/>
  <text x="557" y="194" text-anchor="middle" class="small">not string insertion</text>
  <path d="M685 189 H765" fill="none" stroke="#344250" stroke-width="4" marker-end="url(#arrow)"/>
  <rect x="790" y="151" width="705" height="53" rx="7" fill="#e1f3e8" stroke="#87c7a3"/>
  <text x="1143" y="183" text-anchor="middle" style="font:700 19px Inter, sans-serif; fill:#276d49;">Build time: opt in -&gt; match -&gt; patch -&gt; render</text>

  <!-- Step headings -->
  <circle cx="94" cy="270" r="19" fill="#dc5f5f"/>
  <text x="94" y="276" text-anchor="middle" class="badge">1</text>
  <text x="125" y="278" class="card-title">App owns the varying fields</text>

  <circle cx="594" cy="270" r="19" fill="#3fa36c"/>
  <text x="594" y="276" text-anchor="middle" class="badge">2</text>
  <text x="625" y="278" class="card-title">Component owns shared defaults</text>

  <circle cx="1100" cy="270" r="19" fill="#1594a3"/>
  <text x="1100" y="276" text-anchor="middle" class="badge">3</text>
  <text x="1131" y="278" class="card-title">Kustomize emits the result</text>

  <!-- Before card -->
  <rect x="70" y="304" width="430" height="466" rx="8" fill="#ffffff" stroke="#e4a6a6" filter="url(#shadow)"/>
  <rect x="70" y="304" width="430" height="9" rx="4" fill="#dc5f5f"/>
  <text x="96" y="347" class="label" fill="#a33737">APP STUB - SOURCE FILE</text>
  <text x="96" y="379" class="mono">kopiur/data-pvc.yaml</text>
  <rect x="96" y="402" width="378" height="334" rx="6" fill="#f7f9fa" stroke="#dce3e8"/>
  <text x="116" y="431" class="yaml">apiVersion: kopiur.../v1alpha1</text>
  <text x="116" y="457" class="yaml">kind: SnapshotPolicy</text>
  <text x="116" y="483" class="yaml">metadata:</text>
  <text x="136" y="509" class="yaml">name: data-pvc</text>
  <text x="116" y="535" class="yaml">spec:</text>
  <text x="136" y="561" class="yaml">sources:</text>
  <text x="156" y="587" class="yaml">- pvc:</text>
  <text x="176" y="613" class="yaml">name: data-pvc</text>
  <text x="136" y="639" class="yaml">identity: { ... }</text>
  <text x="136" y="665" class="yaml">retention: { ... }</text>
  <text x="136" y="691" class="yaml">mover:</text>
  <text x="156" y="717" class="yaml">securityContext: { uid: 1001 }</text>
  <text x="96" y="756" class="small">Small on purpose: only this PVC's choices.</text>

  <!-- Component card -->
  <rect x="570" y="304" width="430" height="466" rx="8" fill="#ffffff" stroke="#87c7a3" filter="url(#shadow)"/>
  <rect x="570" y="304" width="430" height="9" rx="4" fill="#3fa36c"/>
  <text x="596" y="347" class="label" fill="#276d49">SHARED COMPONENT - SOURCE FILE</text>
  <text x="596" y="379" class="mono">common/kopiur-backup</text>
  <rect x="596" y="402" width="378" height="334" rx="6" fill="#f7f9fa" stroke="#dce3e8"/>
  <text x="616" y="431" class="yaml">kind: Component</text>
  <text x="616" y="457" class="yaml">patches:</text>
  <text x="636" y="483" class="yaml">- target:</text>
  <rect x="630" y="493" width="314" height="57" rx="4" fill="#e1f3e8"/>
  <text x="656" y="517" class="yaml-strong">group: kopiur.home-operations.com</text>
  <text x="656" y="541" class="yaml-strong">kind: SnapshotPolicy</text>
  <text x="636" y="577" class="yaml">patch:</text>
  <text x="656" y="603" class="yaml">- op: add</text>
  <text x="676" y="629" class="yaml">path: /spec/repository</text>
  <text x="656" y="655" class="yaml">- op: add</text>
  <text x="676" y="681" class="yaml">path: /spec/copyMethod</text>
  <text x="656" y="707" class="yaml">- op: add</text>
  <text x="676" y="729" class="yaml">path: /spec/volumeSnapshotClassName</text>
  <text x="596" y="756" class="small">Reusable: every matching policy gets these fields.</text>

  <!-- Build arrow -->
  <path d="M515 537 H555" fill="none" stroke="#344250" stroke-width="4" marker-end="url(#arrow)"/>
  <path d="M1015 537 H1062" fill="none" stroke="#344250" stroke-width="4" marker-end="url(#arrow)"/>
  <rect x="1007" y="458" width="60" height="66" rx="6" fill="#344250"/>
  <text x="1037" y="479" text-anchor="middle" style="font:700 11px Inter, sans-serif; fill:#ffffff;">MATCH</text>
  <text x="1037" y="496" text-anchor="middle" style="font:600 10px Inter, sans-serif; fill:#ffffff;">group</text>
  <text x="1037" y="511" text-anchor="middle" style="font:600 10px Inter, sans-serif; fill:#ffffff;">+ kind</text>

  <!-- After card -->
  <rect x="1070" y="304" width="460" height="466" rx="8" fill="#ffffff" stroke="#9fd3da" filter="url(#shadow)"/>
  <rect x="1070" y="304" width="460" height="9" rx="4" fill="#1594a3"/>
  <text x="1096" y="347" class="label" fill="#087e8b">RENDERED MANIFEST - IN MEMORY</text>
  <text x="1096" y="379" class="mono">kubectl kustomize ...</text>
  <rect x="1096" y="402" width="408" height="334" rx="6" fill="#f7f9fa" stroke="#dce3e8"/>
  <text x="1116" y="431" class="yaml">kind: SnapshotPolicy</text>
  <text x="1116" y="457" class="yaml">metadata:</text>
  <text x="1136" y="483" class="yaml">name: data-pvc</text>
  <text x="1116" y="509" class="yaml">spec:</text>
  <text x="1136" y="535" class="yaml">sources: [ ... ]</text>
  <text x="1136" y="561" class="yaml">identity: { ... }</text>
  <text x="1136" y="587" class="yaml">retention: { ... }</text>
  <text x="1136" y="613" class="yaml">mover: { uid: 1001 }</text>
  <rect x="1126" y="626" width="352" height="91" rx="4" fill="#e1f3e8" stroke="#87c7a3"/>
  <text x="1146" y="651" class="yaml-strong">repository: cluster-kopia</text>
  <text x="1146" y="677" class="yaml-strong">copyMethod: Snapshot</text>
  <text x="1146" y="703" class="yaml-strong">volumeSnapshotClassName: longhorn-snapclass</text>
  <text x="1096" y="756" class="small">Complete YAML is sent to Argo CD/Kubernetes.</text>

  <!-- Bottom explanation -->
  <rect x="70" y="805" width="1460" height="112" rx="8" fill="#17212b"/>
  <text x="100" y="842" style="font:700 18px Inter, sans-serif; fill:#ffffff;">WHAT CHANGES?</text>
  <text x="100" y="873" style="font:500 17px Inter, sans-serif; fill:#ffffff;">The source files do not change. This is a structured JSON Patch on parsed YAML, applied during every build.</text>
  <rect x="1010" y="830" width="145" height="42" rx="6" fill="#dff4f6"/>
  <text x="1083" y="857" text-anchor="middle" style="font:700 15px Inter, sans-serif; fill:#087e8b;">SnapshotPolicy</text>
  <rect x="1165" y="830" width="168" height="42" rx="6" fill="#dff4f6"/>
  <text x="1249" y="857" text-anchor="middle" style="font:700 15px Inter, sans-serif; fill:#087e8b;">SnapshotSchedule</text>
  <rect x="1343" y="830" width="140" height="42" rx="6" fill="#dff4f6"/>
  <text x="1413" y="857" text-anchor="middle" style="font:700 15px Inter, sans-serif; fill:#087e8b;">Restore</text>
  <text x="1248" y="898" text-anchor="middle" style="font:500 14px Inter, sans-serif; fill:#c7d1d9;">The Component targets all three kinds.</text>
</svg>
